  0
SECTION
  2
HEADER
  9
$ACADVER
  1
AC1009
  9
$INSBASE
 10
0.0
 20
0.0
 30
0.0
  9
$EXTMIN
 10
0.0
 20
0.0
 30
0.0
  9
$EXTMAX
 10
0.0
 20
0.0
 30
0.0
  0
ENDSEC
  0
SECTION
  2
TABLES
  0
TABLE
  2
VPORT
 70
0
  0
ENDTAB
  0
TABLE
  2
LTYPE
 70
1
  0
LTYPE
  2
CONTINUOUS
 70
0
  3
Solid line
 72
65
 73
0
 40
0.0
  0
ENDTAB
  0
TABLE
  2
LAYER
 70
1
  0
LAYER
  2
0
 70
64
 62
7
  6
continuous
  0
ENDTAB
  0
TABLE
  2
STYLE
 70
1
  0
STYLE
  2
STANDARD
 70
0
 40
0
 41
1.0
 50
0.0
 71
0
 42
1
 3
ARIAL.TTF
 4

  0
ENDTAB
  0
TABLE
  2
VIEW
 70
0
  0
ENDTAB
  0
ENDSEC
  0
SECTION
  2
BLOCKS
  0
BLOCK
  8
0
  2
SKETCH725
 70
0
 10
0.0
 20
0.0
 30
0.0
  3
SKETCH725
  0
POLYLINE
  8
0
 62
174
 70
1
 66
1
 10
0.0
 20
0.0
 30
0.0
  0
VERTEX
  8
0
 10
-32.5
 20
-92.1559935466
 30
0.0
 42
0.414213562373
  0
VERTEX
  8
0
 10
-28.5
 20
-96.1559935466
 30
0.0
  0
VERTEX
  8
0
 10
-9.0
 20
-96.1559935466
 30
0.0
 42
0.414213562373
  0
VERTEX
  8
0
 10
-5.0
 20
-92.1559935466
 30
0.0
  0
VERTEX
  8
0
 10
-5.0
 20
-72.8059935466
 30
0.0
 42
-0.414213562373
  0
VERTEX
  8
0
 10
-1.0
 20
-68.8059935466
 30
0.0
  0
VERTEX
  8
0
 10
13.0
 20
-68.8059935466
 30
0.0
 42
0.414213562373
  0
VERTEX
  8
0
 10
17.0
 20
-64.8059935466
 30
0.0
  0
VERTEX
  8
0
 10
17.0
 20
63.2189935466
 30
0.0
 42
0.414213562373
  0
VERTEX
  8
0
 10
13.0
 20
67.2189935466
 30
0.0
  0
VERTEX
  8
0
 10
-1.0
 20
67.2189935466
 30
0.0
 42
-0.414213562373
  0
VERTEX
  8
0
 10
-5.0
 20
71.2189935466
 30
0.0
  0
VERTEX
  8
0
 10
-5.0
 20
90.5689935466
 30
0.0
 42
0.414213562373
  0
VERTEX
  8
0
 10
-9.0
 20
94.5689935466
 30
0.0
  0
VERTEX
  8
0
 10
-28.5
 20
94.5689935466
 30
0.0
 42
0.414213562373
  0
VERTEX
  8
0
 10
-32.5
 20
90.5689935466
 30
0.0
  0
VERTEX
  8
0
 10
-32.5
 20
26.413
 30
0.0
 42
0.414213562373
  0
VERTEX
  8
0
 10
-28.5
 20
22.413
 30
0.0
  0
VERTEX
  8
0
 10
-21.0
 20
22.413
 30
0.0
 42
-0.414213562373
  0
VERTEX
  8
0
 10
-17.0
 20
18.413
 30
0.0
  0
VERTEX
  8
0
 10
-17.0
 20
-20.0
 30
0.0
 42
-0.414213562373
  0
VERTEX
  8
0
 10
-21.0
 20
-24.0
 30
0.0
  0
VERTEX
  8
0
 10
-28.5
 20
-24.0
 30
0.0
 42
0.414213562373
  0
VERTEX
  8
0
 10
-32.5
 20
-28.0
 30
0.0
  0
SEQEND
  8
0
  0
CIRCLE
  8
0
 62
174
 10
0.0
 20
-4.29679952319e-127
 30
0.0
 40
9.5
  0
CIRCLE
  8
0
 62
174
 10
-22.0
 20
80.7189935466
 30
0.0
 40
2.025
  0
CIRCLE
  8
0
 62
174
 10
-22.0
 20
-82.3059935466
 30
0.0
 40
2.025
  0
CIRCLE
  8
0
 62
174
 10
-15.75
 20
-82.3059935466
 30
0.0
 40
1.525
  0
CIRCLE
  8
0
 62
174
 10
-15.75
 20
80.7189935466
 30
0.0
 40
1.525
  0
CIRCLE
  8
0
 62
174
 10
-28.25
 20
80.7189935466
 30
0.0
 40
1.525
  0
CIRCLE
  8
0
 62
174
 10
-22.0
 20
-90.0559935466
 30
0.0
 40
1.525
  0
CIRCLE
  8
0
 62
174
 10
-22.0
 20
-74.5559935466
 30
0.0
 40
1.525
  0
CIRCLE
  8
0
 62
174
 10
-28.25
 20
-82.3059935466
 30
0.0
 40
1.525
  0
CIRCLE
  8
0
 62
174
 10
-22.0
 20
88.4689935466
 30
0.0
 40
1.525
  0
CIRCLE
  8
0
 62
174
 10
-22.0
 20
72.9689935466
 30
0.0
 40
1.525
  0
CIRCLE
  8
0
 62
174
 10
10.6066017178
 20
10.6066017178
 30
0.0
 40
1.525
  0
CIRCLE
  8
0
 62
174
 10
-10.6066017178
 20
10.6066017178
 30
0.0
 40
1.525
  0
CIRCLE
  8
0
 62
174
 10
-10.6066017178
 20
-10.6066017178
 30
0.0
 40
1.525
  0
CIRCLE
  8
0
 62
174
 10
10.6066017178
 20
-10.6066017178
 30
0.0
 40
1.525
  0
CIRCLE
  8
0
 62
174
 10
12.3743686708
 20
1.7763568394e-15
 30
0.0
 40
1.525
  0
CIRCLE
  8
0
 62
174
 10
1.7763568394e-15
 20
12.3743686708
 30
0.0
 40
1.525
  0
CIRCLE
  8
0
 62
174
 10
-12.3743686708
 20
1.01657228796e-110
 30
0.0
 40
1.525
  0
CIRCLE
  8
0
 62
174
 10
0.0
 20
-12.3743686708
 30
0.0
 40
1.525
  0
CIRCLE
  8
0
 62
174
 10
-28.5
 20
26.413
 30
0.0
 40
1.5
  0
CIRCLE
  8
0
 62
174
 10
-28.5
 20
-28.0
 30
0.0
 40
1.5
  0
CIRCLE
  8
0
 62
174
 10
7.6
 20
20.0
 30
0.0
 40
1.025
  0
CIRCLE
  8
0
 62
174
 10
-7.6
 20
20.0
 30
0.0
 40
1.025
  0
CIRCLE
  8
0
 62
174
 10
7.6
 20
-20.0
 30
0.0
 40
1.025
  0
CIRCLE
  8
0
 62
174
 10
-7.6
 20
-20.0
 30
0.0
 40
1.025
  0
POLYLINE
  8
0
 62
174
 70
0
 66
1
 10
0.0
 20
0.0
 30
0.0
  0
VERTEX
  8
0
 10
-32.5
 20
43.9909967733
 30
0.0
  0
VERTEX
  8
0
 10
17.0
 20
43.9909967733
 30
0.0
  0
SEQEND
  8
0
  0
POLYLINE
  8
0
 62
174
 70
0
 66
1
 10
0.0
 20
0.0
 30
0.0
  0
VERTEX
  8
0
 10
17.0
 20
-45.5779967733
 30
0.0
  0
VERTEX
  8
0
 10
-32.5
 20
-45.5779967733
 30
0.0
  0
SEQEND
  8
0
  0
ENDBLK
  0
ENDSEC
  0
SECTION
  2
ENTITIES
  0
INSERT
  2
SKETCH725
  8
0
 62
174
 10
0.0
 20
0.0
 30
0.0
  0
ENDSEC
  0
EOF
