  0
SECTION
  2
HEADER
  9
$ACADVER
  1
AC1009
  9
$INSBASE
 10
0.0
 20
0.0
 30
0.0
  9
$EXTMIN
 10
0.0
 20
0.0
 30
0.0
  9
$EXTMAX
 10
0.0
 20
0.0
 30
0.0
  0
ENDSEC
  0
SECTION
  2
TABLES
  0
TABLE
  2
VPORT
 70
0
  0
ENDTAB
  0
TABLE
  2
LTYPE
 70
1
  0
LTYPE
  2
CONTINUOUS
 70
0
  3
Solid line
 72
65
 73
0
 40
0.0
  0
ENDTAB
  0
TABLE
  2
LAYER
 70
1
  0
LAYER
  2
0
 70
64
 62
7
  6
continuous
  0
ENDTAB
  0
TABLE
  2
STYLE
 70
1
  0
STYLE
  2
STANDARD
 70
0
 40
0
 41
1.0
 50
0.0
 71
0
 42
1
 3
ARIAL.TTF
 4

  0
ENDTAB
  0
TABLE
  2
VIEW
 70
0
  0
ENDTAB
  0
ENDSEC
  0
SECTION
  2
BLOCKS
  0
BLOCK
  8
0
  2
SKETCH180
 70
0
 10
0.0
 20
0.0
 30
0.0
  3
SKETCH180
  0
POLYLINE
  8
0
 62
174
 70
1
 66
1
 10
0.0
 20
0.0
 30
0.0
  0
VERTEX
  8
0
 10
125.374987093
 20
12.0
 30
0.0
 42
0.414213562373
  0
VERTEX
  8
0
 10
122.374987093
 20
15.0
 30
0.0
  0
VERTEX
  8
0
 10
-48.35
 20
15.0
 30
0.0
 42
0.414213562373
  0
VERTEX
  8
0
 10
-51.35
 20
12.0
 30
0.0
  0
VERTEX
  8
0
 10
-51.35
 20
-12.0
 30
0.0
 42
0.414213562373
  0
VERTEX
  8
0
 10
-48.35
 20
-15.0
 30
0.0
  0
VERTEX
  8
0
 10
122.374987093
 20
-15.0
 30
0.0
 42
0.414213562373
  0
VERTEX
  8
0
 10
125.374987093
 20
-12.0
 30
0.0
  0
SEQEND
  8
0
  0
CIRCLE
  8
0
 62
174
 10
37.8059935466
 20
2.30481085105e-14
 30
0.0
 40
8.5
  0
CIRCLE
  8
0
 62
174
 10
111.524987093
 20
1.05261435886e-13
 30
0.0
 40
2.025
  0
CIRCLE
  8
0
 62
174
 10
-37.5
 20
-1.46394008027e-14
 30
0.0
 40
2.025
  0
CIRCLE
  8
0
 62
174
 10
117.774987093
 20
1.12940478473e-13
 30
0.0
 40
1.525
  0
CIRCLE
  8
0
 62
174
 10
105.274987093
 20
9.75823932985e-14
 30
0.0
 40
1.525
  0
CIRCLE
  8
0
 62
174
 10
111.524987093
 20
7.75
 30
0.0
 40
1.525
  0
CIRCLE
  8
0
 62
174
 10
111.524987093
 20
-7.75
 30
0.0
 40
1.525
  0
CIRCLE
  8
0
 62
174
 10
-31.25
 20
-1.32516220219e-14
 30
0.0
 40
1.525
  0
CIRCLE
  8
0
 62
174
 10
29.0559935466
 20
-8.75
 30
0.0
 40
1.525
  0
CIRCLE
  8
0
 62
174
 10
46.5559935466
 20
8.75
 30
0.0
 40
1.525
  0
CIRCLE
  8
0
 62
174
 10
29.0559935466
 20
8.75
 30
0.0
 40
1.525
  0
CIRCLE
  8
0
 62
174
 10
46.5559935466
 20
-8.75
 30
0.0
 40
1.525
  0
CIRCLE
  8
0
 62
174
 10
-43.75
 20
-1.60271795835e-14
 30
0.0
 40
1.525
  0
CIRCLE
  8
0
 62
174
 10
-37.5
 20
7.75
 30
0.0
 40
1.525
  0
CIRCLE
  8
0
 62
174
 10
-37.5
 20
-7.75
 30
0.0
 40
1.525
  0
CIRCLE
  8
0
 62
174
 10
57.8059935466
 20
7.6
 30
0.0
 40
1.025
  0
CIRCLE
  8
0
 62
174
 10
17.8059935466
 20
7.6
 30
0.0
 40
1.025
  0
CIRCLE
  8
0
 62
174
 10
17.8059935466
 20
-7.6
 30
0.0
 40
1.025
  0
CIRCLE
  8
0
 62
174
 10
57.8059935466
 20
-7.6
 30
0.0
 40
1.025
  0
POLYLINE
  8
0
 62
174
 70
0
 66
1
 10
0.0
 20
0.0
 30
0.0
  0
VERTEX
  8
0
 10
74.7969903198
 20
15.0
 30
0.0
  0
VERTEX
  8
0
 10
74.7969903198
 20
-15.0
 30
0.0
  0
SEQEND
  8
0
  0
POLYLINE
  8
0
 62
174
 70
0
 66
1
 10
0.0
 20
0.0
 30
0.0
  0
VERTEX
  8
0
 10
-0.772003226721
 20
-15.0
 30
0.0
  0
VERTEX
  8
0
 10
-0.772003226722
 20
15.0
 30
0.0
  0
SEQEND
  8
0
  0
ENDBLK
  0
ENDSEC
  0
SECTION
  2
ENTITIES
  0
INSERT
  2
SKETCH180
  8
0
 62
174
 10
0.0
 20
0.0
 30
0.0
  0
ENDSEC
  0
EOF
