  0
SECTION
  2
HEADER
  9
$ACADVER
  1
AC1009
  9
$INSBASE
 10
0.0
 20
0.0
 30
0.0
  9
$EXTMIN
 10
0.0
 20
0.0
 30
0.0
  9
$EXTMAX
 10
0.0
 20
0.0
 30
0.0
  0
ENDSEC
  0
SECTION
  2
TABLES
  0
TABLE
  2
VPORT
 70
0
  0
ENDTAB
  0
TABLE
  2
LTYPE
 70
1
  0
LTYPE
  2
CONTINUOUS
 70
0
  3
Solid line
 72
65
 73
0
 40
0.0
  0
ENDTAB
  0
TABLE
  2
LAYER
 70
1
  0
LAYER
  2
0
 70
64
 62
7
  6
continuous
  0
ENDTAB
  0
TABLE
  2
STYLE
 70
1
  0
STYLE
  2
STANDARD
 70
0
 40
0
 41
1.0
 50
0.0
 71
0
 42
1
 3
ARIAL.TTF
 4

  0
ENDTAB
  0
TABLE
  2
VIEW
 70
0
  0
ENDTAB
  0
ENDSEC
  0
SECTION
  2
BLOCKS
  0
BLOCK
  8
0
  2
SKETCH210
 70
0
 10
0.0
 20
0.0
 30
0.0
  3
SKETCH210
  0
POLYLINE
  8
0
 62
174
 70
1
 66
1
 10
0.0
 20
0.0
 30
0.0
  0
VERTEX
  8
0
 10
14.8059935466
 20
-27.0
 30
0.0
 42
-0.414213562373
  0
VERTEX
  8
0
 10
10.8059935466
 20
-31.0
 30
0.0
  0
VERTEX
  8
0
 10
-47.35
 20
-31.0
 30
0.0
 42
-0.414213562373
  0
VERTEX
  8
0
 10
-51.35
 20
-27.0
 30
0.0
  0
VERTEX
  8
0
 10
-51.35
 20
8.0
 30
0.0
 42
-0.414213562373
  0
VERTEX
  8
0
 10
-47.35
 20
12.0
 30
0.0
  0
VERTEX
  8
0
 10
135.374987093
 20
12.0
 30
0.0
 42
-0.414213562373
  0
VERTEX
  8
0
 10
139.374987093
 20
8.0
 30
0.0
  0
VERTEX
  8
0
 10
139.374987093
 20
-27.0
 30
0.0
 42
-0.414213562373
  0
VERTEX
  8
0
 10
135.374987093
 20
-31.0
 30
0.0
  0
VERTEX
  8
0
 10
77.2189935466
 20
-31.0
 30
0.0
 42
-0.414213562373
  0
VERTEX
  8
0
 10
73.2189935466
 20
-27.0
 30
0.0
  0
VERTEX
  8
0
 10
73.2189935466
 20
-20.0
 30
0.0
 42
0.414213562373
  0
VERTEX
  8
0
 10
65.2189935466
 20
-12.0
 30
0.0
  0
VERTEX
  8
0
 10
22.8059935466
 20
-12.0
 30
0.0
 42
0.414213562373
  0
VERTEX
  8
0
 10
14.8059935466
 20
-20.0
 30
0.0
  0
SEQEND
  8
0
  0
CIRCLE
  8
0
 62
174
 10
44.8059935466
 20
-2.4979264161e-14
 30
0.0
 40
8.5
  0
CIRCLE
  8
0
 62
174
 10
125.524987093
 20
-9.99792441266e-14
 30
0.0
 40
2.025
  0
CIRCLE
  8
0
 62
174
 10
125.524987093
 20
-18.0
 30
0.0
 40
2.025
  0
CIRCLE
  8
0
 62
174
 10
-37.5
 20
1.16012875404e-14
 30
0.0
 40
2.025
  0
CIRCLE
  8
0
 62
174
 10
-37.5
 20
-18.0
 30
0.0
 40
2.025
  0
CIRCLE
  8
0
 62
174
 10
125.524987093
 20
-11.75
 30
0.0
 40
1.525
  0
CIRCLE
  8
0
 62
174
 10
125.524987093
 20
-6.25
 30
0.0
 40
1.525
  0
CIRCLE
  8
0
 62
174
 10
125.524987093
 20
6.25
 30
0.0
 40
1.525
  0
CIRCLE
  8
0
 62
174
 10
117.774987093
 20
-9.23241169551e-14
 30
0.0
 40
1.525
  0
CIRCLE
  8
0
 62
174
 10
133.274987093
 20
-1.07634371298e-13
 30
0.0
 40
1.525
  0
CIRCLE
  8
0
 62
174
 10
117.774987093
 20
-18.0
 30
0.0
 40
1.525
  0
CIRCLE
  8
0
 62
174
 10
125.524987093
 20
-24.25
 30
0.0
 40
1.525
  0
CIRCLE
  8
0
 62
174
 10
133.274987093
 20
-18.0
 30
0.0
 40
1.525
  0
CIRCLE
  8
0
 62
174
 10
53.5559935466
 20
8.75
 30
0.0
 40
1.525
  0
CIRCLE
  8
0
 62
174
 10
36.0559935466
 20
8.75
 30
0.0
 40
1.525
  0
CIRCLE
  8
0
 62
174
 10
53.5559935466
 20
-8.75
 30
0.0
 40
1.525
  0
CIRCLE
  8
0
 62
174
 10
36.0559935466
 20
-8.75
 30
0.0
 40
1.525
  0
CIRCLE
  8
0
 62
174
 10
-37.5
 20
-11.75
 30
0.0
 40
1.525
  0
CIRCLE
  8
0
 62
174
 10
-29.75
 20
1.08295431216e-14
 30
0.0
 40
1.525
  0
CIRCLE
  8
0
 62
174
 10
-45.25
 20
1.23730319592e-14
 30
0.0
 40
1.525
  0
CIRCLE
  8
0
 62
174
 10
-37.5
 20
-6.25
 30
0.0
 40
1.525
  0
CIRCLE
  8
0
 62
174
 10
-37.5
 20
6.25
 30
0.0
 40
1.525
  0
CIRCLE
  8
0
 62
174
 10
-45.25
 20
-18.0
 30
0.0
 40
1.525
  0
CIRCLE
  8
0
 62
174
 10
-37.5
 20
-24.25
 30
0.0
 40
1.525
  0
CIRCLE
  8
0
 62
174
 10
-29.75
 20
-18.0
 30
0.0
 40
1.525
  0
CIRCLE
  8
0
 62
174
 10
64.8059935466
 20
-7.6
 30
0.0
 40
1.025
  0
CIRCLE
  8
0
 62
174
 10
64.8059935466
 20
7.6
 30
0.0
 40
1.025
  0
CIRCLE
  8
0
 62
174
 10
24.8059935466
 20
7.6
 30
0.0
 40
1.025
  0
CIRCLE
  8
0
 62
174
 10
24.8059935466
 20
-7.6
 30
0.0
 40
1.025
  0
POLYLINE
  8
0
 62
174
 70
0
 66
1
 10
0.0
 20
0.0
 30
0.0
  0
VERTEX
  8
0
 10
88.7969903198
 20
-31.0
 30
0.0
  0
VERTEX
  8
0
 10
88.7969903198
 20
12.0
 30
0.0
  0
SEQEND
  8
0
  0
POLYLINE
  8
0
 62
174
 70
0
 66
1
 10
0.0
 20
0.0
 30
0.0
  0
VERTEX
  8
0
 10
-0.772003226721
 20
12.0
 30
0.0
  0
VERTEX
  8
0
 10
-0.772003226722
 20
-31.0
 30
0.0
  0
SEQEND
  8
0
  0
ENDBLK
  0
ENDSEC
  0
SECTION
  2
ENTITIES
  0
INSERT
  2
SKETCH210
  8
0
 62
174
 10
0.0
 20
0.0
 30
0.0
  0
ENDSEC
  0
EOF
