  0
SECTION
  2
HEADER
  9
$ACADVER
  1
AC1009
  9
$INSBASE
 10
0.0
 20
0.0
 30
0.0
  9
$EXTMIN
 10
0.0
 20
0.0
 30
0.0
  9
$EXTMAX
 10
0.0
 20
0.0
 30
0.0
  0
ENDSEC
  0
SECTION
  2
TABLES
  0
TABLE
  2
VPORT
 70
0
  0
ENDTAB
  0
TABLE
  2
LTYPE
 70
1
  0
LTYPE
  2
CONTINUOUS
 70
0
  3
Solid line
 72
65
 73
0
 40
0.0
  0
ENDTAB
  0
TABLE
  2
LAYER
 70
1
  0
LAYER
  2
0
 70
64
 62
7
  6
continuous
  0
ENDTAB
  0
TABLE
  2
STYLE
 70
1
  0
STYLE
  2
STANDARD
 70
0
 40
0
 41
1.0
 50
0.0
 71
0
 42
1
 3
ARIAL.TTF
 4

  0
ENDTAB
  0
TABLE
  2
VIEW
 70
0
  0
ENDTAB
  0
ENDSEC
  0
SECTION
  2
BLOCKS
  0
BLOCK
  8
0
  2
SHAPE2DVIEW
 70
0
 10
0.0
 20
0.0
 30
0.0
  3
SHAPE2DVIEW
  0
LINE
  8
0
 62
0
 10
-8.25
 20
-14.5
 30
0.0
 11
-8.25
 21
-19.1125880325
 31
0.0
  0
ARC
  8
0
 62
0
 10
-7.6
 20
-20.0
 30
0.0
 40
1.1
 50
90.0
 51
126.22154662
  0
ARC
  8
0
 62
0
 10
-9.25
 20
-14.5
 30
0.0
 40
1.0
 50
-0.0
 51
90.0
  0
LINE
  8
0
 62
0
 10
-18.0
 20
-13.5
 30
0.0
 11
-9.25
 21
-13.5
 31
0.0
  0
ARC
  8
0
 62
0
 10
-18.0
 20
-12.5
 30
0.0
 40
1.0
 50
-180.0
 51
-90.0
  0
LINE
  8
0
 62
0
 10
-19.0
 20
12.5
 30
0.0
 11
-19.0
 21
-12.5
 31
0.0
  0
ARC
  8
0
 62
0
 10
-18.0
 20
12.5
 30
0.0
 40
1.0
 50
90.0
 51
-180.0
  0
LINE
  8
0
 62
0
 10
-9.25
 20
13.5
 30
0.0
 11
-18.0
 21
13.5
 31
0.0
  0
ARC
  8
0
 62
0
 10
-9.25
 20
14.5
 30
0.0
 40
1.0
 50
-90.0
 51
-0.0
  0
LINE
  8
0
 62
0
 10
-8.25
 20
19.1125880325
 30
0.0
 11
-8.25
 21
14.5
 31
0.0
  0
ARC
  8
0
 62
0
 10
-7.6
 20
20.0
 30
0.0
 40
1.1
 50
-126.22154662
 51
90.0
  0
ARC
  8
0
 62
0
 10
-7.6
 20
20.0
 30
0.0
 40
1.1
 50
90.0
 51
126.22154662
  0
LINE
  8
0
 62
0
 10
-8.25
 20
21.5
 30
0.0
 11
-8.25
 21
20.8874119675
 31
0.0
  0
ARC
  8
0
 62
0
 10
-7.25
 20
21.5
 30
0.0
 40
1.0
 50
90.0
 51
-180.0
  0
LINE
  8
0
 62
0
 10
7.25
 20
22.5
 30
0.0
 11
-7.25
 21
22.5
 31
0.0
  0
ARC
  8
0
 62
0
 10
7.25
 20
21.5
 30
0.0
 40
1.0
 50
-0.0
 51
90.0
  0
LINE
  8
0
 62
0
 10
8.25
 20
20.8874119675
 30
0.0
 11
8.25
 21
21.5
 31
0.0
  0
ARC
  8
0
 62
0
 10
7.6
 20
20.0
 30
0.0
 40
1.1
 50
53.7784533802
 51
90.0
  0
ARC
  8
0
 62
0
 10
7.6
 20
20.0
 30
0.0
 40
1.1
 50
90.0
 51
-53.7784533802
  0
LINE
  8
0
 62
0
 10
8.25
 20
14.5
 30
0.0
 11
8.25
 21
19.1125880325
 31
0.0
  0
ARC
  8
0
 62
0
 10
9.25
 20
14.5
 30
0.0
 40
1.0
 50
-180.0
 51
-90.0
  0
LINE
  8
0
 62
0
 10
12.0228219713
 20
13.5
 30
0.0
 11
9.25
 21
13.5
 31
0.0
  0
ARC
  8
0
 62
0
 10
14.75
 20
14.75
 30
0.0
 40
3.0
 50
-155.375681648
 51
-24.6243183522
  0
LINE
  8
0
 62
0
 10
18.0
 20
13.5
 30
0.0
 11
17.4771780287
 21
13.5
 31
0.0
  0
ARC
  8
0
 62
0
 10
18.0
 20
12.5
 30
0.0
 40
1.0
 50
-0.0
 51
90.0
  0
LINE
  8
0
 62
0
 10
19.0
 20
-12.5
 30
0.0
 11
19.0
 21
12.5
 31
0.0
  0
ARC
  8
0
 62
0
 10
18.0
 20
-12.5
 30
0.0
 40
1.0
 50
-90.0
 51
-0.0
  0
LINE
  8
0
 62
0
 10
17.4771780287
 20
-13.5
 30
0.0
 11
18.0
 21
-13.5
 31
0.0
  0
ARC
  8
0
 62
0
 10
14.75
 20
-14.75
 30
0.0
 40
3.0
 50
24.6243183522
 51
90.0
  0
ARC
  8
0
 62
0
 10
14.75
 20
-14.75
 30
0.0
 40
3.0
 50
90.0
 51
155.375681648
  0
LINE
  8
0
 62
0
 10
9.25
 20
-13.5
 30
0.0
 11
12.0228219713
 21
-13.5
 31
0.0
  0
ARC
  8
0
 62
0
 10
9.25
 20
-14.5
 30
0.0
 40
1.0
 50
90.0
 51
-180.0
  0
LINE
  8
0
 62
0
 10
8.25
 20
-19.1125880325
 30
0.0
 11
8.25
 21
-14.5
 31
0.0
  0
ARC
  8
0
 62
0
 10
7.6
 20
-20.0
 30
0.0
 40
1.1
 50
53.7784533802
 51
90.0
  0
ARC
  8
0
 62
0
 10
7.6
 20
-20.0
 30
0.0
 40
1.1
 50
90.0
 51
-53.7784533802
  0
LINE
  8
0
 62
0
 10
8.25
 20
-21.5
 30
0.0
 11
8.25
 21
-20.8874119675
 31
0.0
  0
ARC
  8
0
 62
0
 10
7.25
 20
-21.5
 30
0.0
 40
1.0
 50
-90.0
 51
-0.0
  0
LINE
  8
0
 62
0
 10
-7.25
 20
-22.5
 30
0.0
 11
7.25
 21
-22.5
 31
0.0
  0
ARC
  8
0
 62
0
 10
-7.25
 20
-21.5
 30
0.0
 40
1.0
 50
-180.0
 51
-90.0
  0
LINE
  8
0
 62
0
 10
-8.25
 20
-20.8874119675
 30
0.0
 11
-8.25
 21
-21.5
 31
0.0
  0
ARC
  8
0
 62
0
 10
-7.6
 20
-20.0
 30
0.0
 40
1.1
 50
-126.22154662
 51
90.0
  0
CIRCLE
  8
0
 62
0
 10
-2.11497486191e-15
 20
15.0
 30
0.0
 40
3.05
  0
CIRCLE
  8
0
 62
0
 10
-2.11497486191e-15
 20
-2.74032747696e-30
 30
0.0
 40
6.0
  0
CIRCLE
  8
0
 62
0
 10
-8.75
 20
8.75
 30
0.0
 40
3.05
  0
CIRCLE
  8
0
 62
0
 10
8.75
 20
-8.75
 30
0.0
 40
3.05
  0
CIRCLE
  8
0
 62
0
 10
-8.75
 20
-8.75
 30
0.0
 40
3.05
  0
CIRCLE
  8
0
 62
0
 10
8.75
 20
8.75
 30
0.0
 40
3.05
  0
CIRCLE
  8
0
 62
0
 10
-2.11497486191e-15
 20
-15.0
 30
0.0
 40
3.05
  0
ENDBLK
  0
ENDSEC
  0
SECTION
  2
ENTITIES
  0
INSERT
  2
SHAPE2DVIEW
  8
0
 62
0
 10
0.0
 20
0.0
 30
0.0
  0
ENDSEC
  0
EOF
